<svg version="1" xmlns="http://www.w3.org/2000/svg" width="272" height="272" viewBox="0 0 204.000000 204.000000"><path d="M0 20.9c0 20.8 0 21 2.2 21.7 1.3.5 2.6.8 3 .9.3 0 1 .3 1.4.7.4.5 1.8.8 3 .8 1.3 0 2.8.9 3.5 2.1.7 1.4 1.7 1.9 3.1 1.6 2.1-.6 6.8 1.8 6.8 3.5 0 2.3 7.1 8.9 9.2 8.6.9-.2 2.4.6 3.2 1.7 1.2 1.7 1.8 1.8 3.4.8 1.7-1 2.5-.7 5.5 2.2 2.1 2.1 3.9 3.1 4.2 2.4.5-.7 1.1-.7 2 .1 1.5 1.2 3-.3 2-2-1-1.6.7-1.1 2.9.9 3.1 2.7 8.1 5.8 7.3 4.3-.6-.8-.2-1.2 1-1.3 1.4 0 1.3-.2-.5-1-1.3-.5-4.2-2.4-6.5-4.2-4.6-3.7-20.8-14.4-23.1-15.3-2.9-1.1-2.5-3.5 1.2-7.6 5.5-6.1 12-8.8 21.3-8.8 8.3 0 14.4 1.7 24.9 7 15.2 7.6 25.9 16.1 32 25.1 2.2 3.2 4.8 6.2 5.7 6.8 2.8 1.5 7-1.3 7.8-5.1 1.9-8.9 11.6-30.1 15.9-35 7.2-8.1 15.8-7.7 30.3 1.4 8.4 5.3 12.7 10.2 11.8 13.7-1.1 4.6-3.1 6.5-9.8 9.9-7.7 3.8-41 17.2-42.9 17.2-2.5.1-6.1 2.7-4.9 3.4.7.4 1.7.3 2.4-.2s4.4-1.7 8.3-2.6c5.6-1.4 8-1.5 10.9-.7 4.6 1.2 6.2.5 4.1-1.8-1.5-1.6-1-2 6.7-5.1 4.5-1.8 11.1-4.8 14.6-6.7 3.5-1.9 6.5-3.2 6.8-3 .9.9-4.2 12.6-8 18.5l-4.1 6.3-1.3-4.6c-.8-2.5-1.6-4.5-1.9-4.5-.9 0 .7 17.4 2.2 22.6.7 2.8 2.9 7.1 4.9 9.7l3.5 4.6-3.3-.5c-1.7-.3-5.2.1-7.7 1s-5.7 1.6-7.2 1.6c-2.8 0-3.7-1.3-1.7-2.6 2-1.2 4.9-8.9 4.9-13.2C161 86 153.4 77 144.8 77c-4.2 0-10.7 3-13.4 6.1-1.1 1.3-3.2 4.5-4.6 7-2.2 4.1-2.4 5-1.3 7.6 1.6 3.7 9.7 10.9 15.5 13.6 2.5 1.1 7.3 2.3 10.7 2.5l6.2.4-1.5 3c-2.5 4.8-1.2 7.3 6.1 11.3 3.6 2 6.5 4.1 6.5 4.6 0 1.5-4 4.8-10.4 8.5-5.3 3.1-6.6 3.4-13.6 3.4-15 0-25.2-3.5-32.9-11.2-3.3-3.4-4.4-4-5.1-2.8-1.1 1.8.6 5 2.7 5 .8 0 3.1 1.4 5.1 3.1 9.5 8.4 25.1 11.2 38 6.9 3.7-1.2 8.1-3.3 9.9-4.6 3.8-2.9 4.3-2.9 4.3-.5 0 2.6-3.5 4.7-14.8 8.5-9.2 3.2-14.1 4.5-24.2 6.5l-4.5.9 5.5.1 5.5.2-2.7 2.4c-3.5 3.1-3.5 4.4-.1 3.7l2.8-.5-3.3 3.7c-3.3 3.8-4.3 7.2-1.8 6.3.9-.4.5.8-1 3-1.4 2.1-2.2 4.4-1.9 5.4.8 2.4-2.2 9.2-7.4 16.8-2.9 4.2-3.7 6.1-2.7 6.1 1.6 0 6-5.9 9.5-12.7 1.2-2.4 2.4-4.3 2.7-4.3.7 0 6.5 4.1 9.5 6.8 1.5 1.3 3.5 4.1 4.4 6.3l1.8 3.9H204V0H0v20.9zM184 9.4c0 .3-.4.8-1 1.1-.5.3-1 .1-1-.4 0-.6.5-1.1 1-1.1.6 0 1 .2 1 .4zm3 15.1c0 5.5-.3 11.7-.6 13.7l-.7 3.8-3.3-4.2c-1.8-2.4-5-5.5-7-7-2.1-1.5-3.2-2.8-2.6-2.8.7 0 1.2-1.1 1.2-2.5s.4-2.5.8-2.5c.5 0 .7 1.5.5 3.2-.4 3.1-.3 3.2 1.1 1.4.9-1.1 1.6-2.8 1.6-3.8 0-.9.8-2.2 1.8-2.7s2.7-2.8 3.7-5.1c2.6-5.7 3.5-3.5 3.5 8.5zm-63.7 16c1.5 3 2.5 5.5 2.4 5.5-.2 0-2.5-2.5-5.1-5.5-4.4-5.1-4.5-5.5-2.4-5.5 1.9 0 3 1.2 5.1 5.5zm11-4.8c.5.3.2 1.2-.6 2.1-.8 1-2 3.2-2.8 5-.8 1.7-1.8 3.1-2.2 2.9-.5-.1-2.2-2.6-3.8-5.4l-3-5.2 5.8.1c3.2 0 6.2.3 6.6.5zm-19.4 5c1.7 2.6 2.8 4.9 2.6 5.2-.3.2-2.3-1.7-4.6-4.2-6.1-7-8.1-6.1-3.3 1.4 2.6 4.3 4.5 4.8 2.3.7-1.1-2.1-1.1-2.2.4-.9 3.4 2.8 11.8 15.1 11.5 16.8-.2 1.2-1.9-.6-5.1-5.5-2.6-4-5.2-7-5.7-6.7-.5.3-3.3-1.7-6.1-4.5-5.8-5.7-5.5-7 1.3-7 3.4 0 4.1.4 6.7 4.7zm-9.5 5.8c5.9 7.7 8.5 11.8 5.5 8.8-.6-.6-1.7-.9-2.3-.7-.6.2-2.7-1.2-4.6-3.1-2.5-2.6-2.9-3.4-1.5-2.9 1.2.4.2-1.2-2.7-4.2-5.3-5.5-5.7-6.4-2.9-6.4 1.3 0 4.3 3 8.5 8.5zm-10.6-4.4c1.3 1.6 2.2 2.9 2 2.9-1.2 0-6.7-4.8-6.1-5.3 1-1.1 1.7-.7 4.1 2.4zm29.3 5c2.2 2.8 2.7 4.2 2.1 5.9-1 2.7-1.4 2.2-6.7-7.5-3.6-6.7-3.7-6.9-1-4.5 1.5 1.4 4 4.1 5.6 6.1zm-6 11c4.2 5.6 5 7.5 4.2 8.8-1.7 2.6-3 1.9-8.3-4.8-2.9-3.5-4.7-6-4.2-5.7.6.3 1.7.3 2.6 0 1.2-.5 1.3-1.1.6-2.4-1.1-2-1.3-3-.6-3 .2 0 2.8 3.2 5.7 7.1zM36 55.8c0 .8-.1 1.3-.3 1.1-.1-.2-.9-1.2-1.6-2.2-1.2-1.5-1.2-1.7.3-1.1.9.3 1.6 1.3 1.6 2.2zm-4.6.8c.3.8.2 1.2-.4.9-.6-.3-1-1-1-1.6 0-1.4.7-1.1 1.4.7zm120.2 27.7l2.2 2.6-1.9 3.9c-1.1 2.2-2.4 6.4-2.9 9.3-.8 4.7-.6 5.8 1.1 8.2l2 2.8-2.8-.7c-4.1-1-14.5-6-16.9-8.1-1.1-1-2.8-3-3.8-4.5-1.6-2.4-1.6-2.9-.2-5.5 2.3-4.2 4.8-7.2 8.1-9.4 4.3-2.9 12-2.2 15.1 1.4zm25.7 30.8c2.1.5 4 1.6 4.3 2.4.8 1.9-1.4 5.5-3.2 5.5-.8 0-2.1 1.5-2.9 3.4-.8 1.8-2.1 3.6-2.9 3.9-1.7.7-4.2-1.4-5.1-4.3-.7-2.2-3.7-3.4-6.3-2.6-2.5.8-5.7-1.7-4.9-3.8.9-2.4 8.4-5.6 13.2-5.6 2.2 0 5.7.5 7.8 1.1zm-.3 16.6c0 .5-1.5 2.7-3.4 5.1-3.5 4.4-5.1 4-3.4-.9 1-3 6.8-6.5 6.8-4.2zm-8.6 14.8c-2 3-2.4 3.1-2.4.6 0-1.1.8-2.2 1.8-2.4.9-.3 1.8-.5 2-.6.1 0-.5 1-1.4 2.4zM164 149c-1.7 3.1-10 5.6-10 3.1 0-.7 8.4-4.6 10.8-5 .1-.1-.2.8-.8 1.9z"/><path d="M104.5 51c.3.5 1.6 1.5 2.8 2.1 2.2 1.2 2.2 1.2.3-1-1.9-2.1-4.3-3-3.1-1.1zM114.6 58.2c1 3.4 3.4 6.7 5.5 7.9 2.9 1.5 2.4-.5-1.3-5.6-3.6-4.8-5.3-5.8-4.2-2.3zM0 46.9c0 .6.4 1.1.9 1.1 1.8 0 14.9 10.8 25.4 20.9 10.3 9.9 12.3 10.6 5.5 1.8C25.5 62.8 0 43.7 0 46.9zM21.3 71.6c2.6 2.5 4.7 4.7 4.7 5 0 .2-1.1.4-2.5.4-3.7 0-3.1 1.4 1.5 3.5 4.5 2 4.5 2.2 2.5 4.9-2.2 2.9-1.8 3.6 1.5 2.9 2.6-.5 3-.3 3 1.7 0 2.9.5 2.4 1.4-1.3.5-2 .3-2.7-.9-2.7-1.7 0-2-1.6-.5-2.5 1.6-1 1.2-2.5-.7-2.5-1 0-2.6-.7-3.6-1.4-1.8-1.4-1.8-1.4 0-1.8 1.5-.3 1-1.1-2.5-4.6-2.3-2.3-3.6-4.2-2.9-4.2.8 0 .7-.4-.3-1-.8-.5-2.4-1-3.5-1-1.6 0-1 1 2.8 4.6zM69.5 71.7c2.2.9 4.2 1.8 4.4 1.9.2.2-1.1 1.5-2.8 2.9C69.4 78 68 80 68 81.1c0 2.4.4 2.4 3.8-.1 4.3-3.1 14.6-4.1 24.9-2.4 9.4 1.5 26 1.9 28 .6.7-.4-1.8-.6-5.5-.4-5.1.3-12.2-.8-29.3-4.2C77.5 72.1 67 70 66.4 70.1c-.5 0 .9.7 3.1 1.6z"/><path d="M0 137.2V204h57.1l1-2.8c.5-1.5 2.2-3.7 3.7-4.9 7.1-5.7 12.2-9.2 12.2-8.5 0 .5 1.6 2.7 3.6 5 4 4.7 14.8 11.2 18.5 11.2 1.7 0 .2-1.2-5.1-4.1-4.1-2.2-9.2-5.8-11.3-7.9-3.4-3.6-3.7-4.3-3.1-7.9.8-5.2 0-8.2-3.2-12-2-2.4-2.2-3.1-1-3.1 2 0 2-.9 0-3.1-1.4-1.6-1.2-1.8 2.7-2.4 4.2-.7 4.2-.8 1.8-2.1-2.3-1.2-5.9-2.2-22.6-6.4-4.5-1.1-10.7-3.1-13.7-4.5-4.5-2-5.7-3.1-6.6-6-.7-2-.9-4.2-.6-5 .9-2.3-1.2-2.8-2.6-.5-1.6 2.5-2.8 2.6-2.8.2 0-3.6 6.8-28.9 10.9-40.5 3-8.4 3.7-10.3 6.6-17.2 1.6-3.7 1.6-3.8 0-2.5-2.4 2-6.8 11.1-10.5 21.8-1.8 5.1-3.6 9.2-4 9.2-1.2 0-21.1-24.9-28.2-35.4L0 70.5v66.7zM79.2 84.1C70.5 88.5 64 99.3 64 109.7c0 5 1.1 7.5 4.9 11.6 4 4.4 7.4 5.7 13.8 5.6l5.8-.2-4.5-.6c-6-.9-10.3-3.3-13.2-7.3-1.9-2.7-2.3-4.5-2.2-9.8.1-7.1 1.5-10.8 6.6-16.5 4.5-5.2 9.6-7.5 16.6-7.5 4.9 0 6.2.4 8.2 2.5l2.3 2.5-2.1 2.2c-3.2 3.5-7.2 12.9-7.2 17 0 4.2 2.7 7.8 5.9 7.8 3 0 7.8-6.2 8.5-11.1.8-5.1-.7-13.9-2.9-17.2-4.2-6.5-16.8-8.8-25.3-4.6z"/></svg>